<svg xmlns="http://www.w3.org/2000/svg" viewBox="0 0 34.92 73.22"><defs><style>.cls-1,.cls-2{fill:#dc6379;}.cls-2{fill-rule:evenodd;}</style></defs><g id="Ebene_2" data-name="Ebene 2"><g id="Ebene_1-2" data-name="Ebene 1"><path d="M26.11 5.45c.15 3.11-1.5 5.71-3.68 5.82s-4.06-2.34-4.21-5.45S19.72.11 21.9 0s4.1 2.34 4.21 5.45M16.82 8c.2 1.93-.71 3.61-2 3.76S12.19 10.48 12 8.55s.71-3.61 2-3.75 2.62 1.3 2.82 3.2M11.21 11c.18 1.67-.61 3.13-1.77 3.26S7.2 13.17 7 11.49s.61-3.13 1.77-3.26S11 9.37 11.21 11M6.94 14.95c.23 1.55-.42 2.94-1.47 3.1s-2.08-1-2.31-2.53.42-2.94 1.47-3.09 2.08 1 2.31 2.53M3.68 19.11c.26 1.48-.34 2.83-1.34 3s-2-.89-2.27-2.37.34-2.83 1.34-3 2 .89 2.27 2.37" class="cls-1"/><path d="M34.36 60.45a6.28 6.28 0 0 0-.23-.69 15.8 15.8 0 0 0-8.13-8.4c-6.18-3-7.09-3.84-7.09-3.84S4.54 38.45 5.71 29.69a8.08 8.08 0 0 1 2.18-4.93 5.52 5.52 0 0 1 9.17 1.8.44.44 0 0 0 .86 0 5.53 5.53 0 0 1 1-1.64 3 3 0 0 1 .56-.55A5.5 5.5 0 0 1 23.11 23h.37c2.74 0 5.61 1.57 6.25 6.27a.45.45 0 0 0 .44.4.45.45 0 0 0 .45-.45c.31-12.46-5.77-16.68-12.43-15.06C10 16.2 1.55 22.36 2 30.28c.75 13.47 8.9 12.74 14 35.25a9.31 9.31 0 0 0 .52 1.65 9.56 9.56 0 0 0 17.9-6.73z" class="cls-2"/></g></g></svg>