<svg id="Ebene_1" data-name="Ebene 1" xmlns="http://www.w3.org/2000/svg" viewBox="0 0 188.33 73.22"><defs><style>.cls-1,.cls-2{fill:#dc6379;}.cls-2{fill-rule:evenodd;}</style></defs><title>logo</title><path class="cls-1" d="M5.79,50.64V61.85A2.16,2.16,0,0,1,3.64,64,2.21,2.21,0,0,1,1.4,61.85V37.23a2.7,2.7,0,0,1,2.69-2.65H16a2.09,2.09,0,1,1,0,4.18H5.79v7.7h9.64a2.09,2.09,0,1,1,0,4.18Z" transform="translate(44.01 -13.19)"/><path class="cls-1" d="M35.3,44.35a2.1,2.1,0,0,1,2.11-2.15,2.14,2.14,0,0,1,2.15,2.15V60.4a2.67,2.67,0,0,1-1.82,2.52A19.79,19.79,0,0,1,31.24,64a8.38,8.38,0,0,1-6.08-2.23A8.4,8.4,0,0,1,23,55.69V44.35a2.13,2.13,0,1,1,4.26,0V56a3.66,3.66,0,0,0,4,4,16.26,16.26,0,0,0,4.06-.5Z" transform="translate(44.01 -13.19)"/><path class="cls-1" d="M57.69,53.62a5.84,5.84,0,0,1-3.48-5.17,6,6,0,0,1,2.81-5A2.7,2.7,0,0,0,58.35,41c0-2.07-2-2.9-3.85-2.9a3.71,3.71,0,0,0-4,3.89V61.81a2.13,2.13,0,0,1-4.26,0V41.94c0-4.55,3.48-7.82,8.24-7.82S62.61,37,62.61,41a6,6,0,0,1-2.73,5.3c-1,.83-1.41,1.28-1.41,2.23a2.09,2.09,0,0,0,1.12,1.66l2.77,1.41a6.72,6.72,0,0,1,3.72,6,6.47,6.47,0,0,1-6.5,6.42,11.29,11.29,0,0,1-5-1.2,2.13,2.13,0,0,1-1.2-1.94,1.92,1.92,0,0,1,2.11-1.86,1.9,1.9,0,0,1,1,.21,6.42,6.42,0,0,0,2.94.87,2.36,2.36,0,0,0,2.48-2.48A2.85,2.85,0,0,0,60.42,55Z" transform="translate(44.01 -13.19)"/><path class="cls-1" d="M72.18,35.57a1.41,1.41,0,1,1,2.81,0v27a1.41,1.41,0,1,1-2.81,0Z" transform="translate(44.01 -13.19)"/><path class="cls-1" d="M81.82,36a1.86,1.86,0,0,1,3.73,0,1.86,1.86,0,1,1-3.73,0Zm.46,7.82a1.41,1.41,0,0,1,2.82,0V62.6a1.41,1.41,0,0,1-2.82,0Z" transform="translate(44.01 -13.19)"/><path class="cls-1" d="M93.33,54.11v2.32c0,3,1.78,5,4.76,5a11.65,11.65,0,0,0,4.72-1.16,1.46,1.46,0,0,1,.58-.12,1.34,1.34,0,0,1,.62,2.57A13.32,13.32,0,0,1,98.08,64a7.17,7.17,0,0,1-7.57-7.57V50a7.55,7.55,0,1,1,15.11,0v2.15a1.94,1.94,0,0,1-1.95,1.94Zm9.48-4.3c0-3-1.78-4.76-4.72-4.76a4.37,4.37,0,0,0-4.76,4.76v1.7h9.48Z" transform="translate(44.01 -13.19)"/><path class="cls-1" d="M111.91,63a1.92,1.92,0,0,1-1.33-1.82V35.57a1.41,1.41,0,0,1,2.81,0v8.11a10,10,0,0,1,4.76-1.24c4.59,0,7.53,3,7.53,7.57v6.41A7.16,7.16,0,0,1,118.16,64,19.6,19.6,0,0,1,111.91,63Zm11-13.16c0-3-1.78-4.76-4.72-4.76a6.78,6.78,0,0,0-4.76,1.66v14a16.4,16.4,0,0,0,4.76.7c2.94,0,4.72-1.78,4.72-4.76Z" transform="translate(44.01 -13.19)"/><path class="cls-1" d="M132,54.11v2.32c0,3,1.78,5,4.76,5a11.67,11.67,0,0,0,4.72-1.16,1.43,1.43,0,0,1,.58-.12,1.34,1.34,0,0,1,.62,2.57A13.32,13.32,0,0,1,136.78,64a7.17,7.17,0,0,1-7.57-7.57V50a7.55,7.55,0,1,1,15.11,0v2.15a1.94,1.94,0,0,1-1.95,1.94Zm9.48-4.3c0-3-1.78-4.76-4.72-4.76A4.37,4.37,0,0,0,132,49.81v1.7h9.48Z" transform="translate(44.01 -13.19)"/><path class="cls-1" d="M-17.9,18.64c.15,3.11-1.5,5.71-3.68,5.82S-25.65,22.12-25.8,19s1.5-5.71,3.68-5.82,4.06,2.34,4.21,5.45" transform="translate(44.01 -13.19)"/><path class="cls-1" d="M-27.19,21.22c.2,1.93-.71,3.61-2,3.76s-2.58-1.31-2.79-3.24.71-3.61,2-3.75,2.58,1.31,2.79,3.24" transform="translate(44.01 -13.19)"/><path class="cls-1" d="M-32.81,24.23c.18,1.67-.61,3.13-1.77,3.26s-2.24-1.13-2.42-2.81.61-3.13,1.77-3.26,2.24,1.13,2.42,2.81" transform="translate(44.01 -13.19)"/><path class="cls-1" d="M-37.07,28.14c.23,1.55-.42,2.94-1.47,3.1s-2.08-1-2.31-2.53.42-2.94,1.47-3.09,2.08,1,2.31,2.53" transform="translate(44.01 -13.19)"/><path class="cls-1" d="M-40.34,32.3c.26,1.48-.34,2.83-1.34,3s-2-.89-2.27-2.37.34-2.83,1.34-3,2,.89,2.27,2.37" transform="translate(44.01 -13.19)"/><path class="cls-2" d="M-9.65,73.64a6.28,6.28,0,0,0-.23-.69,15.8,15.8,0,0,0-8.17-8.4c-6.18-3-7.09-3.84-7.09-3.84S-39.47,51.64-38.3,42.88A8.08,8.08,0,0,1-36.12,38a5.51,5.51,0,0,1,4-1.74,5.53,5.53,0,0,1,5.16,3.54l0,0a.45.45,0,0,0,.43.35.44.44,0,0,0,.43-.36l0,0a5.53,5.53,0,0,1,1-1.64,3,3,0,0,1,.56-.55,5.5,5.5,0,0,1,3.58-1.32l.37,0c2.74,0,5.61,1.57,6.25,6.27h0a.45.45,0,0,0,.44.4.45.45,0,0,0,.45-.45c.31-12.46-5.77-16.68-12.43-15.06C-34,29.39-42.46,35.55-42,43.47c.75,13.47,8.9,12.74,14,35.25a9.31,9.31,0,0,0,.52,1.65,9.57,9.57,0,0,0,8.89,6,9.57,9.57,0,0,0,9.57-9.57A9.53,9.53,0,0,0-9.65,73.64Z" transform="translate(44.01 -13.19)"/></svg>