<svg xmlns="http://www.w3.org/2000/svg" id="Ebene_1" data-name="Ebene 1" viewBox="0 0 188.33 73.22"><defs><style>.cls-1,.cls-2{fill:#dc6379;}.cls-2{fill-rule:evenodd;}</style></defs><path d="M49.8 37.45v11.21a2.16 2.16 0 0 1-2.15 2.15 2.21 2.21 0 0 1-2.24-2.15V24.04a2.7 2.7 0 0 1 2.69-2.65h11.91a2.09 2.09 0 1 1 0 4.18H49.8v7.7h9.64a2.09 2.09 0 1 1 0 4.18zM79.31 31.16a2.1 2.1 0 0 1 2.11-2.15 2.14 2.14 0 0 1 2.15 2.15v16.05a2.67 2.67 0 0 1-1.82 2.52 19.79 19.79 0 0 1-6.5 1.08 8.38 8.38 0 0 1-6.08-2.23 8.4 8.4 0 0 1-2.16-6.08V31.16a2.13 2.13 0 1 1 4.26 0v11.65a3.66 3.66 0 0 0 4 4 16.26 16.26 0 0 0 4.06-.5zM101.7 40.43a5.84 5.84 0 0 1-3.48-5.17 6 6 0 0 1 2.81-5 2.7 2.7 0 0 0 1.33-2.45c0-2.07-2-2.9-3.85-2.9a3.71 3.71 0 0 0-4 3.89v19.82a2.13 2.13 0 0 1-4.26 0V28.75c0-4.55 3.48-7.82 8.24-7.82s8.13 2.88 8.13 6.88a6 6 0 0 1-2.73 5.3c-1 .83-1.41 1.28-1.41 2.23A2.09 2.09 0 0 0 103.6 37l2.77 1.41a6.72 6.72 0 0 1 3.72 6 6.47 6.47 0 0 1-6.5 6.42 11.29 11.29 0 0 1-5-1.2 2.13 2.13 0 0 1-1.2-1.94 1.92 1.92 0 0 1 2.11-1.86 1.9 1.9 0 0 1 1 .21 6.42 6.42 0 0 0 2.94.87 2.36 2.36 0 0 0 2.48-2.48 2.85 2.85 0 0 0-1.49-2.62zM116.19 22.38a1.41 1.41 0 1 1 2.81 0v27a1.41 1.41 0 1 1-2.81 0zM125.83 22.81a1.865 1.865 0 0 1 3.73 0 1.865 1.865 0 1 1-3.73 0zm.46 7.82a1.41 1.41 0 0 1 2.82 0v18.78a1.41 1.41 0 0 1-2.82 0zM137.34 40.92v2.32c0 3 1.78 5 4.76 5a11.65 11.65 0 0 0 4.72-1.16 1.46 1.46 0 0 1 .58-.12 1.34 1.34 0 0 1 .62 2.57 13.32 13.32 0 0 1-5.93 1.28 7.17 7.17 0 0 1-7.57-7.57v-6.43a7.555 7.555 0 1 1 15.11 0v2.15a1.94 1.94 0 0 1-1.95 1.94zm9.48-4.3c0-3-1.78-4.76-4.72-4.76a4.37 4.37 0 0 0-4.76 4.76v1.7h9.48zM155.92 49.81a1.92 1.92 0 0 1-1.33-1.82V22.38a1.41 1.41 0 0 1 2.81 0v8.11a10 10 0 0 1 4.76-1.24c4.59 0 7.53 3 7.53 7.57v6.41a7.16 7.16 0 0 1-7.52 7.58 19.6 19.6 0 0 1-6.25-1zm11-13.16c0-3-1.78-4.76-4.72-4.76a6.78 6.78 0 0 0-4.76 1.66v14a16.4 16.4 0 0 0 4.76.7c2.94 0 4.72-1.78 4.72-4.76zM176.01 40.92v2.32c0 3 1.78 5 4.76 5a11.67 11.67 0 0 0 4.72-1.16 1.43 1.43 0 0 1 .58-.12 1.34 1.34 0 0 1 .62 2.57 13.32 13.32 0 0 1-5.9 1.28 7.17 7.17 0 0 1-7.57-7.57v-6.43a7.555 7.555 0 1 1 15.11 0v2.15a1.94 1.94 0 0 1-1.95 1.94zm9.48-4.3c0-3-1.78-4.76-4.72-4.76a4.37 4.37 0 0 0-4.76 4.76v1.7h9.48zM26.11 5.45c.15 3.11-1.5 5.71-3.68 5.82s-4.07-2.34-4.22-5.46S19.71.1 21.89-.01s4.06 2.34 4.21 5.45M16.82 8.03c.2 1.93-.71 3.61-2 3.76s-2.58-1.31-2.79-3.24.71-3.61 2-3.75 2.58 1.31 2.79 3.24M11.2 11.04c.18 1.67-.61 3.13-1.77 3.26s-2.24-1.13-2.42-2.81.61-3.13 1.77-3.26 2.24 1.13 2.42 2.81M6.94 14.95c.23 1.55-.42 2.94-1.47 3.1s-2.08-1-2.31-2.53.42-2.94 1.47-3.09 2.08 1 2.31 2.53M3.67 19.11c.26 1.48-.34 2.83-1.34 3s-2-.89-2.27-2.37.34-2.83 1.34-3 2 .89 2.27 2.37" class="cls-1"/><path d="M34.36 60.45a6.28 6.28 0 0 0-.23-.69 15.8 15.8 0 0 0-8.17-8.4c-6.18-3-7.09-3.84-7.09-3.84S4.54 38.45 5.71 29.69a8.08 8.08 0 0 1 2.18-4.88 5.51 5.51 0 0 1 4-1.74 5.53 5.53 0 0 1 5.16 3.54.45.45 0 0 0 .43.35.44.44 0 0 0 .43-.36 5.53 5.53 0 0 1 1-1.64 3 3 0 0 1 .56-.55 5.5 5.5 0 0 1 3.58-1.32h.37c2.74 0 5.61 1.57 6.25 6.27a.45.45 0 0 0 .44.4.45.45 0 0 0 .45-.45c.31-12.46-5.77-16.68-12.43-15.06-8.12 1.95-16.58 8.11-16.12 16.03.75 13.47 8.9 12.74 14 35.25a9.31 9.31 0 0 0 .52 1.65 9.57 9.57 0 0 0 8.89 6 9.57 9.57 0 0 0 9.57-9.57 9.53 9.53 0 0 0-.63-3.16z" class="cls-2"/></svg>